<?xml version="1.0" encoding="UTF-8" standalone="no"?>
<!DOCTYPE svg PUBLIC "-//W3C//DTD SVG 1.1//EN" "http://www.w3.org/Graphics/SVG/1.1/DTD/svg11.dtd">
<svg width="100%" height="100%" viewBox="0 0 25 24" version="1.1" xmlns="http://www.w3.org/2000/svg" xmlns:xlink="http://www.w3.org/1999/xlink" xml:space="preserve" xmlns:serif="http://www.serif.com/" style="fill-rule:evenodd;clip-rule:evenodd;stroke-linejoin:round;stroke-miterlimit:2;">
    <g transform="matrix(1,0,0,1,-50,0)">
        <g id="close" transform="matrix(1,0,0,1,50.854,0)">
            <rect x="0" y="0" width="24" height="24" style="fill:none;"/>
            <g transform="matrix(-2.08718,0,0,1.21218,37.0462,-2.72046)">
                <path d="M15.063,6.869L8.937,17.418" style="fill:none;"/>
            </g>
            <g transform="matrix(-2.08718,0,0,1.21218,37.0462,-2.72046)">
                <path d="M15.656,7.89C15.983,7.327 15.983,6.412 15.656,5.848C15.329,5.285 14.798,5.285 14.47,5.848L8.344,16.397C8.017,16.961 8.017,17.876 8.344,18.439C8.671,19.002 9.202,19.002 9.53,18.439L15.656,7.89Z"/>
            </g>
            <g transform="matrix(3.35645e-16,-2.08718,-1.21218,-1.94934e-16,26.7205,37.0462)">
                <path d="M15.063,6.869L8.937,17.418" style="fill:none;"/>
            </g>
            <g transform="matrix(3.35645e-16,-2.08718,-1.21218,-1.94934e-16,26.7205,37.0462)">
                <path d="M15.656,7.89C15.983,7.327 15.983,6.412 15.656,5.848C15.329,5.285 14.798,5.285 14.47,5.848L8.344,16.397C8.017,16.961 8.017,17.876 8.344,18.439C8.671,19.002 9.202,19.002 9.53,18.439L15.656,7.89Z"/>
            </g>
        </g>
    </g>
</svg>
