<?xml version="1.0" encoding="UTF-8" standalone="no"?>
<!DOCTYPE svg PUBLIC "-//W3C//DTD SVG 1.1//EN" "http://www.w3.org/Graphics/SVG/1.1/DTD/svg11.dtd">
<svg width="100%" height="100%" viewBox="0 0 25 24" version="1.1" xmlns="http://www.w3.org/2000/svg" xmlns:xlink="http://www.w3.org/1999/xlink" xml:space="preserve" xmlns:serif="http://www.serif.com/" style="fill-rule:evenodd;clip-rule:evenodd;stroke-linejoin:round;stroke-miterlimit:2;">
    <g transform="matrix(1,0,0,1,-127,0)">
        <g id="contract" transform="matrix(1,0,0,1,127.006,0)">
            <rect x="0" y="0" width="24" height="24" style="fill:none;"/>
            <g transform="matrix(0.528577,-0.528577,-0.306984,-0.306984,5.35781,26.0907)">
                <path d="M8,3.916L16,12L8,20.372" style="fill:rgb(235,235,235);fill-opacity:0;"/>
            </g>
            <g transform="matrix(0.528577,-0.528577,-0.306984,-0.306984,5.35781,26.0907)">
                <path d="M8.948,1.135C8.056,0.234 6.908,0.749 6.385,2.284C5.862,3.819 6.161,5.796 7.052,6.697L12.348,12.048L7.027,17.616C6.144,18.54 5.863,20.525 6.4,22.046C6.936,23.567 8.089,24.052 8.973,23.127L16.973,14.756C17.536,14.166 17.878,13.11 17.873,11.975C17.868,10.84 17.516,9.793 16.948,9.219L8.948,1.135Z"/>
            </g>
            <g transform="matrix(-0.528577,0.528577,0.306984,0.306984,18.6422,-2.09072)">
                <path d="M8,3.916L16,12L8,20.372" style="fill:rgb(235,235,235);fill-opacity:0;"/>
            </g>
            <g transform="matrix(-0.528577,0.528577,0.306984,0.306984,18.6422,-2.09072)">
                <path d="M8.948,1.135C8.056,0.234 6.908,0.749 6.385,2.284C5.862,3.819 6.161,5.796 7.052,6.697L12.348,12.048L7.027,17.616C6.144,18.54 5.863,20.525 6.4,22.046C6.936,23.567 8.089,24.052 8.973,23.127L16.973,14.756C17.536,14.166 17.878,13.11 17.873,11.975C17.868,10.84 17.516,9.793 16.948,9.219L8.948,1.135Z"/>
            </g>
        </g>
    </g>
</svg>
