<?xml version="1.0" encoding="UTF-8" standalone="no"?>
<!DOCTYPE svg PUBLIC "-//W3C//DTD SVG 1.1//EN" "http://www.w3.org/Graphics/SVG/1.1/DTD/svg11.dtd">
<svg width="100%" height="100%" viewBox="0 0 24 25" version="1.1" xmlns="http://www.w3.org/2000/svg" xmlns:xlink="http://www.w3.org/1999/xlink" xml:space="preserve" xmlns:serif="http://www.serif.com/" style="fill-rule:evenodd;clip-rule:evenodd;stroke-linejoin:round;stroke-miterlimit:2;">
    <g transform="matrix(1,0,0,1,0,-77)">
        <g id="copy" transform="matrix(1,0,0,1,0,77.638)">
            <rect x="0" y="0" width="24" height="24" style="fill:none;"/>
            <g transform="matrix(0.942671,0,0,0.942671,0.0399841,-72.5297)">
                <path d="M8.391,97.202L5.506,97.202C4.842,97.202 4.206,96.938 3.737,96.469C3.268,95.999 3.005,95.363 3.006,94.699L3.019,81.807C3.02,80.428 4.139,79.31 5.518,79.31L11.775,79.308C12.438,79.308 13.075,79.571 13.544,80.04L15.642,82.139L17.161,82.139C17.824,82.139 18.46,82.402 18.929,82.871L21.637,85.579C22.106,86.048 22.369,86.684 22.369,87.347L22.369,97.533C22.369,98.913 21.25,100.033 19.869,100.033L10.891,100.033C10.228,100.033 9.591,99.769 9.122,99.3C8.654,98.83 8.39,98.194 8.391,97.53L8.391,97.202ZM12.108,82.14L11.776,81.808L5.519,81.81L5.506,94.702L8.394,94.702L8.404,84.638C8.405,83.258 9.524,82.141 10.903,82.14L12.108,82.14ZM17.161,84.639L10.904,84.64L10.891,97.533L19.869,97.533L19.869,87.347L17.161,84.639Z"/>
            </g>
        </g>
    </g>
</svg>
