<?xml version="1.0" encoding="UTF-8" standalone="no"?>
<!DOCTYPE svg PUBLIC "-//W3C//DTD SVG 1.1//EN" "http://www.w3.org/Graphics/SVG/1.1/DTD/svg11.dtd">
<svg width="100%" height="100%" viewBox="0 0 25 25" version="1.1" xmlns="http://www.w3.org/2000/svg" xmlns:xlink="http://www.w3.org/1999/xlink" xml:space="preserve" xmlns:serif="http://www.serif.com/" style="fill-rule:evenodd;clip-rule:evenodd;stroke-linejoin:round;stroke-miterlimit:2;">
    <g transform="matrix(1,0,0,1,-102,-77)">
        <g id="home" transform="matrix(1,0,0,1,102.62,77.638)">
            <rect x="0" y="0" width="24" height="24" style="fill:none;"/>
            <g transform="matrix(-5.93243e-17,-0.96884,-0.864684,5.29466e-17,22.5236,20.3254)">
                <path d="M9.193,5.122L16,12L9.101,19.219" style="fill:rgb(235,235,235);fill-opacity:0;"/>
            </g>
            <g transform="matrix(-6.02855e-17,-0.984536,-0.975016,5.97025e-17,23.8663,21.3514)">
                <path d="M7.494,20.144C7.569,20.307 7.664,20.46 7.781,20.601C8.462,21.417 9.606,21.461 10.334,20.698L17.233,13.479C17.603,13.092 17.811,12.549 17.806,11.982C17.802,11.416 17.585,10.877 17.21,10.497L17.003,10.288C16.915,10.159 16.814,10.037 16.7,9.924C16.7,9.924 15.886,9.115 14.87,8.132L10.403,3.619C9.663,2.871 8.519,2.937 7.852,3.766C7.745,3.899 7.656,4.044 7.586,4.197L1.361,4.197C-0.042,4.197 -1.178,5.345 -1.178,6.761L-1.178,17.58C-1.178,18.996 -0.042,20.144 1.361,20.144L7.494,20.144ZM8.021,17.58L1.361,17.58L1.361,15.365L6.287,15.365C7.129,15.365 7.811,14.676 7.811,13.826L7.811,10.514C7.811,9.665 7.129,8.976 6.287,8.976L1.361,8.976L1.361,6.761L8.118,6.761L13.329,12.026L8.021,17.58ZM1.361,10.514L6.287,10.514L6.287,13.826L1.361,13.826L1.361,10.514Z"/>
            </g>
            <g transform="matrix(1,0,0,0.872979,-102.151,-65.9325)">
                <rect x="112.536" y="92.893" width="3.229" height="6.135" style="fill:rgb(128,128,128);fill-opacity:0;"/>
            </g>
            <g transform="matrix(1,0,0,1,-102.294,-77.1704)">
                <path d="M109.019,89.17C109.019,88.747 114.708,83.839 114.708,83.839C114.708,83.839 119.568,88.747 119.568,89.17L119.568,97.182L109.019,97.182L109.019,89.17Z" style="fill:rgb(128,128,128);fill-opacity:0;"/>
            </g>
        </g>
    </g>
</svg>
