<?xml version="1.0" encoding="UTF-8" standalone="no"?>
<!DOCTYPE svg PUBLIC "-//W3C//DTD SVG 1.1//EN" "http://www.w3.org/Graphics/SVG/1.1/DTD/svg11.dtd">
<svg width="100%" height="100%" viewBox="0 0 25 25" version="1.1" xmlns="http://www.w3.org/2000/svg" xmlns:xlink="http://www.w3.org/1999/xlink" xml:space="preserve" xmlns:serif="http://www.serif.com/" style="fill-rule:evenodd;clip-rule:evenodd;stroke-linejoin:round;stroke-miterlimit:2;">
    <g transform="matrix(1,0,0,1,-102,-26)">
        <g id="loading" transform="matrix(1,0,0,1,102.063,26.9202)">
            <rect x="0" y="0" width="24" height="24" style="fill:none;"/>
            <g transform="matrix(2.83075,0,0,2.83075,-4.45653,-97.4084)">
                <path d="M3.011,39.24C2.999,39.193 2.99,39.14 2.983,39.081C2.969,38.94 2.951,38.797 2.951,38.65C2.951,37.07 4.234,35.788 5.813,35.788C7.393,35.788 8.676,37.07 8.676,38.65C8.676,40.23 7.393,41.512 5.813,41.512C5.093,41.512 4.434,41.246 3.931,40.805C3.813,40.717 3.737,40.576 3.737,40.417C3.737,40.149 3.955,39.932 4.223,39.932C4.36,39.932 4.484,39.989 4.572,40.08C4.905,40.369 5.339,40.544 5.813,40.544C6.859,40.544 7.707,39.695 7.707,38.65C7.707,37.605 6.859,36.756 5.813,36.756C4.768,36.756 3.92,37.605 3.92,38.65C3.92,38.751 3.943,38.946 3.943,38.946C3.943,38.946 3.961,39.017 3.965,39.06C3.972,39.093 3.976,39.127 3.976,39.163C3.976,39.431 3.758,39.649 3.49,39.649C3.249,39.649 3.048,39.472 3.011,39.24Z"/>
            </g>
        </g>
    </g>
</svg>
