<?xml version="1.0" encoding="UTF-8" standalone="no"?>
<!DOCTYPE svg PUBLIC "-//W3C//DTD SVG 1.1//EN" "http://www.w3.org/Graphics/SVG/1.1/DTD/svg11.dtd">
<svg width="100%" height="100%" viewBox="0 0 25 24" version="1.1" xmlns="http://www.w3.org/2000/svg" xmlns:xlink="http://www.w3.org/1999/xlink" xml:space="preserve" xmlns:serif="http://www.serif.com/" style="fill-rule:evenodd;clip-rule:evenodd;stroke-linejoin:round;stroke-miterlimit:2;">
    <g transform="matrix(1,0,0,1,-75,0)">
        <g id="menu" transform="matrix(1,0,0,1,75.8481,0)">
            <rect x="0" y="0" width="24" height="24" style="fill:none;"/>
            <g transform="matrix(3.14992e-16,-2.08718,-1.13759,-1.94934e-16,25.1128,38.7663)">
                <path d="M10.084,5.21L10.084,17.844" style="fill:none;"/>
            </g>
            <g transform="matrix(3.14992e-16,-2.08718,-1.13759,-1.94934e-16,25.1128,38.7663)">
                <path d="M10.922,5.21C10.922,4.361 10.546,3.671 10.084,3.671C9.621,3.671 9.245,4.361 9.245,5.21L9.245,17.844C9.245,18.693 9.621,19.382 10.084,19.382C10.546,19.382 10.922,18.693 10.922,17.844L10.922,5.21Z"/>
            </g>
            <g transform="matrix(3.14992e-16,-2.08718,-1.13759,-1.94934e-16,25.1128,33.0462)">
                <path d="M10.084,5.21L10.084,17.844" style="fill:none;"/>
            </g>
            <g transform="matrix(3.14992e-16,-2.08718,-1.13759,-1.94934e-16,25.1128,33.0462)">
                <path d="M10.922,5.21C10.922,4.361 10.546,3.671 10.084,3.671C9.621,3.671 9.245,4.361 9.245,5.21L9.245,17.844C9.245,18.693 9.621,19.382 10.084,19.382C10.546,19.382 10.922,18.693 10.922,17.844L10.922,5.21Z"/>
            </g>
            <g transform="matrix(3.14992e-16,-2.08718,-1.13759,-1.94934e-16,25.1128,27.3261)">
                <path d="M10.084,5.21L10.084,17.844" style="fill:none;"/>
            </g>
            <g transform="matrix(3.14992e-16,-2.08718,-1.13759,-1.94934e-16,25.1128,27.3261)">
                <path d="M10.922,5.21C10.922,4.361 10.546,3.671 10.084,3.671C9.621,3.671 9.245,4.361 9.245,5.21L9.245,17.844C9.245,18.693 9.621,19.382 10.084,19.382C10.546,19.382 10.922,18.693 10.922,17.844L10.922,5.21Z"/>
            </g>
        </g>
    </g>
</svg>
