<?xml version="1.0" encoding="UTF-8" standalone="no"?>
<!DOCTYPE svg PUBLIC "-//W3C//DTD SVG 1.1//EN" "http://www.w3.org/Graphics/SVG/1.1/DTD/svg11.dtd">
<svg width="100%" height="100%" viewBox="0 0 25 24" version="1.1" xmlns="http://www.w3.org/2000/svg" xmlns:xlink="http://www.w3.org/1999/xlink" xml:space="preserve" xmlns:serif="http://www.serif.com/" style="fill-rule:evenodd;clip-rule:evenodd;stroke-linejoin:round;stroke-miterlimit:2;">
    <g transform="matrix(1,0,0,1,-25,0)">
        <g id="previous" transform="matrix(1,0,0,1,25.4973,0)">
            <rect x="0" y="0" width="24" height="24" style="fill:none;"/>
            <g transform="matrix(-1.30579,0,0,0.758369,27.6695,2.79054)">
                <path d="M8,3.916L16,12L8,20.372" style="fill:rgb(235,235,235);fill-opacity:0;"/>
            </g>
            <g transform="matrix(-1.30579,0,0,0.758369,27.6695,2.79054)">
                <path d="M8.678,1.926C8.04,1.281 7.219,1.65 6.844,2.748C6.47,3.846 6.684,5.262 7.322,5.906L13.386,12.035L7.304,18.4C6.672,19.061 6.471,20.482 6.855,21.57C7.239,22.658 8.064,23.005 8.696,22.344L16.696,13.972C17.099,13.55 17.344,12.794 17.34,11.982C17.337,11.17 17.085,10.421 16.678,10.01L8.678,1.926Z"/>
            </g>
        </g>
    </g>
</svg>
