<?xml version="1.0" encoding="UTF-8" standalone="no"?>
<!DOCTYPE svg PUBLIC "-//W3C//DTD SVG 1.1//EN" "http://www.w3.org/Graphics/SVG/1.1/DTD/svg11.dtd">
<svg width="100%" height="100%" viewBox="0 0 25 25" version="1.1" xmlns="http://www.w3.org/2000/svg" xmlns:xlink="http://www.w3.org/1999/xlink" xml:space="preserve" xmlns:serif="http://www.serif.com/" style="fill-rule:evenodd;clip-rule:evenodd;stroke-linejoin:round;stroke-miterlimit:2;">
    <g transform="matrix(1,0,0,1,-76,-52)">
        <g id="trash" transform="matrix(1,0,0,1,76.4245,52.0261)">
            <rect x="0" y="0" width="24" height="24" style="fill:none;"/>
            <g transform="matrix(1.25201,0,0,1.25201,79.4171,-57.45)">
                <path d="M-59.239,53.262L-60.1,53.262C-60.541,53.262 -60.899,52.905 -60.899,52.464C-60.899,52.023 -60.541,51.665 -60.1,51.665L-59.543,51.665C-59.548,51.397 -59.444,51.135 -59.251,50.942L-57.423,49.114C-57.236,48.927 -56.982,48.822 -56.717,48.822L-50.952,48.822C-50.687,48.822 -50.433,48.927 -50.246,49.114L-48.418,50.942C-48.224,51.135 -48.121,51.397 -48.125,51.665L-47.742,51.665C-47.301,51.665 -46.944,52.023 -46.944,52.464C-46.944,52.905 -47.301,53.262 -47.742,53.262L-48.43,53.262L-50.141,61.779C-50.235,62.246 -50.645,62.581 -51.12,62.581L-56.548,62.581C-57.024,62.581 -57.433,62.246 -57.527,61.779L-59.239,53.262ZM-57.15,51.665L-50.519,51.665L-51.365,50.818L-56.303,50.818L-57.15,51.665ZM-55.731,60.584L-51.938,60.584L-50.466,53.262L-57.202,53.262L-55.731,60.584Z"/>
            </g>
        </g>
    </g>
</svg>
