<?xml version="1.0" encoding="UTF-8" standalone="no"?>
<!DOCTYPE svg PUBLIC "-//W3C//DTD SVG 1.1//EN" "http://www.w3.org/Graphics/SVG/1.1/DTD/svg11.dtd">
<svg width="100%" height="100%" viewBox="0 0 3000 1000" version="1.1" xmlns="http://www.w3.org/2000/svg" xmlns:xlink="http://www.w3.org/1999/xlink" xml:space="preserve" xmlns:serif="http://www.serif.com/" style="fill-rule:evenodd;clip-rule:evenodd;stroke-linejoin:round;stroke-miterlimit:2;">
    <g transform="matrix(1,0,0,1,-1232.88,0)">
        <g id="logo-complete" transform="matrix(2.99997,0,0,1,1232.88,0)">
            <rect x="0" y="0" width="1000" height="1000" style="fill:none;"/>
            <g transform="matrix(3.15891,0,0,3.3049,-3430.01,-4256)">
                <path d="M1196.5,1507.12L1211.56,1377.56L1225.89,1377.56L1241.42,1507.12L1229.41,1507.12L1223.12,1450.47C1222.12,1441.05 1221.15,1431.03 1220.21,1420.4C1219.27,1409.77 1218.33,1398.73 1217.39,1387.28L1219.77,1387.28C1218.86,1398.76 1217.98,1409.83 1217.13,1420.48C1216.28,1431.14 1215.38,1441.13 1214.42,1450.47L1208.38,1507.12L1196.5,1507.12ZM1206.73,1479.54L1206.73,1456.12L1231.19,1456.12L1231.19,1479.54L1206.73,1479.54Z" style="fill-rule:nonzero;"/>
                <path d="M1243.71,1507.12L1243.71,1409.9L1254.29,1409.9L1254.29,1507.12L1243.71,1507.12ZM1248.98,1398.51C1247.49,1398.51 1246.2,1397.08 1245.13,1394.21C1244.06,1391.34 1243.53,1387.9 1243.53,1383.9C1243.53,1379.85 1244.06,1376.4 1245.13,1373.56C1246.2,1370.72 1247.49,1369.3 1248.98,1369.3C1250.5,1369.3 1251.79,1370.7 1252.87,1373.51C1253.94,1376.33 1254.47,1379.79 1254.47,1383.9C1254.47,1387.96 1253.94,1391.41 1252.87,1394.25C1251.79,1397.09 1250.5,1398.51 1248.98,1398.51Z" style="fill-rule:nonzero;"/>
                <path d="M1258.56,1507.12L1258.56,1409.9L1268.82,1409.9L1268.82,1427.64L1269.18,1427.64C1269.79,1421.21 1270.8,1416.44 1272.21,1413.32C1273.62,1410.2 1275.25,1408.64 1277.1,1408.64C1277.6,1408.64 1278.11,1408.74 1278.64,1408.93C1279.18,1409.12 1279.67,1409.4 1280.11,1409.77L1280.11,1436.14C1279.61,1435.63 1278.95,1435.25 1278.13,1434.99C1277.31,1434.74 1276.57,1434.61 1275.92,1434.61C1274.62,1434.61 1273.46,1435.43 1272.43,1437.06C1271.4,1438.7 1270.59,1440.97 1270.01,1443.87C1269.43,1446.78 1269.14,1450.17 1269.14,1454.05L1269.14,1507.12L1258.56,1507.12Z" style="fill-rule:nonzero;"/>
                <path d="M1290.16,1508.85C1288.01,1508.85 1286.08,1507.79 1284.39,1505.67C1282.71,1503.55 1281.39,1500.37 1280.43,1496.13C1279.48,1491.88 1279,1486.55 1279,1480.13C1279,1474.74 1279.33,1470.2 1279.99,1466.5C1280.65,1462.8 1281.57,1459.8 1282.74,1457.49C1283.9,1455.18 1285.25,1453.41 1286.77,1452.18C1288.29,1450.96 1289.9,1450.14 1291.62,1449.74C1293.55,1449.25 1295.1,1448.73 1296.27,1448.2C1297.44,1447.66 1298.3,1446.84 1298.84,1445.75C1299.38,1444.65 1299.65,1443.11 1299.65,1441.13L1299.65,1440.74C1299.65,1438.49 1299.47,1436.59 1299.11,1435.03C1298.74,1433.48 1298.22,1432.29 1297.54,1431.46C1296.85,1430.64 1296.02,1430.23 1295.05,1430.23C1294.07,1430.23 1293.21,1430.64 1292.46,1431.47C1291.7,1432.31 1291.08,1433.47 1290.6,1434.96C1290.11,1436.45 1289.77,1438.21 1289.57,1440.26L1279.97,1436.69C1280.43,1431.13 1281.31,1426.25 1282.61,1422.06C1283.92,1417.86 1285.63,1414.59 1287.74,1412.23C1289.85,1409.87 1292.32,1408.69 1295.15,1408.69C1297.25,1408.69 1299.21,1409.4 1301.04,1410.82C1302.87,1412.24 1304.47,1414.33 1305.85,1417.09C1307.22,1419.85 1308.3,1423.24 1309.07,1427.26C1309.84,1431.28 1310.23,1435.9 1310.23,1441.12L1310.23,1507.12L1300.27,1507.12L1300.27,1493.51L1300,1493.51C1299.39,1496.83 1298.61,1499.62 1297.68,1501.89C1296.75,1504.17 1295.65,1505.9 1294.41,1507.08C1293.16,1508.26 1291.75,1508.85 1290.16,1508.85ZM1293.38,1488.75C1294.58,1488.75 1295.65,1488.06 1296.61,1486.68C1297.57,1485.3 1298.33,1483.39 1298.89,1480.96C1299.46,1478.53 1299.74,1475.71 1299.74,1472.52L1299.74,1463.2C1299.44,1463.65 1299.07,1464.08 1298.61,1464.49C1298.15,1464.9 1297.65,1465.27 1297.11,1465.6C1296.56,1465.93 1296.02,1466.22 1295.47,1466.48C1294.92,1466.73 1294.4,1466.96 1293.91,1467.18C1292.87,1467.6 1291.99,1468.31 1291.26,1469.31C1290.54,1470.31 1289.98,1471.59 1289.6,1473.14C1289.22,1474.7 1289.03,1476.56 1289.03,1478.73C1289.03,1480.9 1289.22,1482.74 1289.6,1484.23C1289.97,1485.71 1290.49,1486.84 1291.14,1487.6C1291.79,1488.37 1292.54,1488.75 1293.38,1488.75Z" style="fill-rule:nonzero;"/>
                <path d="M1322.54,1480.98L1322.54,1454.14C1323.42,1449.03 1324.28,1444.36 1325.12,1440.15C1325.96,1435.93 1326.92,1431.68 1327.98,1427.39C1329.05,1423.11 1330.32,1418.28 1331.81,1412.9L1341.87,1377.56L1354.72,1377.56L1335.73,1442.48L1334.78,1441.4L1322.54,1480.98ZM1314.52,1507.12L1314.52,1377.56L1325.21,1377.56L1325.21,1409.35L1325.01,1444.4L1325.21,1459.36L1325.21,1507.12L1314.52,1507.12ZM1342.76,1507.12L1330.57,1451.72L1337.33,1429.07L1355.37,1507.12L1342.76,1507.12Z" style="fill-rule:nonzero;"/>
                <path d="M1357.85,1507.12L1357.85,1409.9L1368.43,1409.9L1368.43,1507.12L1357.85,1507.12ZM1363.12,1398.51C1361.62,1398.51 1360.34,1397.08 1359.27,1394.21C1358.2,1391.34 1357.66,1387.9 1357.66,1383.9C1357.66,1379.85 1358.2,1376.4 1359.27,1373.56C1360.34,1370.72 1361.62,1369.3 1363.12,1369.3C1364.64,1369.3 1365.93,1370.7 1367,1373.51C1368.07,1376.33 1368.61,1379.79 1368.61,1383.9C1368.61,1387.96 1368.07,1391.41 1367,1394.25C1365.93,1397.09 1364.64,1398.51 1363.12,1398.51Z" style="fill-rule:nonzero;"/>
                <path d="M1390.98,1409.9L1390.98,1432.41L1369.81,1432.41L1369.81,1409.9L1390.98,1409.9ZM1374.3,1386.77L1384.88,1386.77L1384.88,1477.34C1384.88,1479.93 1385.09,1481.85 1385.52,1483.1C1385.94,1484.35 1386.63,1484.97 1387.59,1484.97C1387.95,1484.97 1388.46,1484.85 1389.12,1484.59C1389.78,1484.34 1390.24,1484.1 1390.52,1483.87L1391.89,1506C1390.7,1506.98 1389.55,1507.65 1388.43,1508C1387.33,1508.36 1386.27,1508.54 1385.27,1508.54C1381.68,1508.54 1378.95,1506.11 1377.09,1501.26C1375.23,1496.4 1374.3,1489.34 1374.3,1480.08L1374.3,1386.77Z" style="fill-rule:nonzero;"/>
            </g>
            <g transform="matrix(-0.51643,1.89732e-16,-6.32444e-17,-1.54928,478.396,1696.12)">
                <path d="M859.783,449.32L859.783,740.643L859.466,740.643C852.546,884.955 733.19,1000 587.177,1000C441.164,1000 321.808,884.955 314.888,740.643L314.571,740.643L314.571,449.32L408.123,449.32L408.123,727.394C408.123,826.217 488.355,906.448 587.177,906.448C685.999,906.448 766.231,826.217 766.231,727.394L766.231,449.32L859.783,449.32ZM593.331,839.404C514.707,839.404 450.874,775.571 450.874,696.948C450.874,618.324 514.707,554.491 593.331,554.491C671.954,554.491 735.787,618.324 735.787,696.948C735.787,775.571 671.954,839.404 593.331,839.404ZM593.331,772.41C634.979,772.41 668.793,738.596 668.793,696.948C668.793,655.299 634.979,621.485 593.331,621.485C551.682,621.485 517.868,655.299 517.868,696.948C517.868,738.596 551.682,772.41 593.331,772.41Z"/>
            </g>
        </g>
    </g>
</svg>
